<?xml version="1.0" encoding="utf-8"?>
<!-- Generator: Adobe Illustrator 16.0.0, SVG Export Plug-In . SVG Version: 6.00 Build 0)  -->
<!DOCTYPE svg PUBLIC "-//W3C//DTD SVG 1.1 Basic//EN" "http://www.w3.org/Graphics/SVG/1.1/DTD/svg11-basic.dtd">
<svg version="1.1" baseProfile="basic" id="图层_1"
	 xmlns="http://www.w3.org/2000/svg" xmlns:xlink="http://www.w3.org/1999/xlink" x="0px" y="0px" width="622.922px"
	 height="356.955px" viewBox="0 0 622.922 356.955" xml:space="preserve">
<path fill-rule="evenodd" clip-rule="evenodd" d="M354.956,134.983c-4,0-8,0-11.999,0c-1-2.666-2-5.333-3-7.999
	c-0.333,0-0.666,0-1,0c0-1,0-2,0-3c-0.333,0-0.666,0-1,0c0-0.667,0-1.333,0-2c-0.333,0-0.666,0-0.999,0c0-1,0-2,0-3
	c-0.334,0-0.667,0-1,0c-0.334-1.333-0.667-2.667-1-4c-0.333,0-0.667,0-1,0c0-1,0-2,0-3c-0.667-0.333-1.333-0.667-1.999-1
	c-2.036-3.569,1.61-3.287-4-4c-4.332,9.331-8.666,18.665-12.999,27.997c-3.332,0-6.666,0-9.998,0c-0.333-1-0.667-2-1-3
	c2.887-2.651,2.223-5.575,4-8.999c0.333,0,0.667,0,1,0c0.333-1.333,0.667-2.667,1-4c0.333,0,0.667,0,1,0c0-1,0-2,0-3
	c0.333,0,0.667,0,1,0c0-0.667,0-1.333,0-2c0.333,0,0.666,0,1,0c0.666-2,1.333-4,1.999-5.999c0.334,0,0.667,0,1,0
	c0.334-2,0.667-4,1-6c0.334,0,0.667,0,1,0c0.334-1.333,0.667-2.667,1-4c0.334,0,0.667,0,1,0c0-1,0-2,0-3c0.334,0,0.667,0,1,0
	c0.333-1.333,0.667-2.667,1-4c0.333,0,0.667,0,1,0c0.333-1.666,0.666-3.333,1-5c0.666-0.333,1.333-0.667,1.999-1c1-3,2-6,3-8.999
	c1.135,0.844,0.146-0.127,1,1c2.477,2.31,0.73,2.223,2,4.999c0.333,0,0.666,0,1,0c0,0.667,0,1.333,0,2c0.332,0,0.666,0,0.999,0
	c0,0.667,0,1.333,0,2c0.333,0,0.667,0,1,0c0,0.667,0,1.333,0,2c0.333,0,0.666,0,1,0c0,0.667,0,1.333,0,2c0.333,0,0.666,0,1,0
	c0,1,0,2,0,3c0.333,0,0.666,0,0.999,0c0,0.667,0,1.333,0,2c0.334,0,0.667,0,1,0c0,1,0,2,0,3c0.334,0,0.667,0,1,0
	c0,0.667,0,1.333,0,2c0.334,0,0.667,0,1,0c0.333,1.666,0.667,3.333,1,5c0.667,0.333,1.333,0.667,2,1c0,1.333,0,2.667,0,4
	c0.666,0.333,1.333,0.667,1.999,1c0.334,2,0.667,4,1,5.999c0.334,0,0.667,0,1,0c0.334,1.333,0.667,2.667,1,4c0.334,0,0.667,0,1,0
	c0,0.667,0,1.333,0,2c0.334,0,0.667,0,1,0c0,1,0,2,0,3c0.334,0,0.667,0,1,0c0,0.667,0,1.333,0,2c0.333,0,0.667,0,1,0
	c0,1.333,0,2.667,0,4c0.667,0.333,1.333,0.667,2,1C354.956,133.649,354.956,134.316,354.956,134.983z"/>
<path fill-rule="evenodd" clip-rule="evenodd" d="M122.984,80.99c3.333,0,6.667,0,9.999,0c1.315,3.608,1,9.883,1,14.998
	c0,9.665,0,19.332,0,28.996c0,32.993,0,65.995,0,98.988c-2.651,0.997-6.943,1.041-10.999,1c-2.866-7.85-1-22.277-1-31.996
	c0-23.661,0-47.33,0-70.991c1.581-1.896,0.012-6.806,0-10.999C122.318,100.988,122.651,90.987,122.984,80.99z"/>
<path fill-rule="evenodd" clip-rule="evenodd" d="M179.978,81.989c7.479,0.648,11.832,4.235,16.998,7c2,0.667,4,1.333,5.999,2
	c0,0.333,0,0.667,0,1c1,0.333,2,0.667,3,1c0.333,0.667,0.667,1.333,1,2c1.333,0.333,2.667,0.667,4,1c0.667,1,1.333,2,2,3
	c0.333,0,0.667,0,1,0c0,0.667,0,1.333,0,2c1.667,1.333,3.333,2.667,5,4c0,0.667,0,1.333,0,2c2.333,2,4.666,4,6.999,5.999
	c0,0.667,0,1.333,0,2c0.667,0.333,1.333,0.667,2,1c2.333,5.665,4.666,11.333,6.999,16.998c-2.333,0-4.667,0-6.999,0
	c0,0.333,0,0.667,0,1c-1.667,0-3.333,0-5,0c-2.084-9.388-9.144-15.245-14.998-20.998c-0.667-1-1.333-2-2-3c-0.667,0-1.333,0-2,0
	c-1-1.333-2-2.667-3-4c-0.667,0-1.333,0-2,0c-1-1.333-2-2.667-3-4c-2.566-1.676-14.953-4.14-15.998-5.999
	C179.978,91.322,179.978,86.655,179.978,81.989z"/>
<path fill-rule="evenodd" clip-rule="evenodd" d="M391.951,83.989c7.218-0.094,8.652,0.514,13.998,1
	c3.45,6.066,11.072,9.871,12.999,16.998c0.666,0,1.333,0,1.999,0c0,0.667,0,1.333,0,2c1,0.667,2,1.333,3,2c0,0.667,0,1.333,0,2
	c1.666,1.333,3.333,2.667,4.999,4c0,0.667,0,1.333,0,2c1,0.667,2,1.333,2.999,2c0.667,1,1.334,2,2,3c0.333,0,0.667,0,1,0
	c0,0.667,0,1.333,0,2c0.667,0.333,1.333,0.667,2,1c0.666,1,1.333,2,2,3c0.333,0,0.666,0,0.999,0c0,0.667,0,1.333,0,2
	c0.334,0,0.667,0,1,0c1.173,1.477,1.409,1.774,2,4c0.667,0,1.333,0,2,0c0.698,2.834,1.783,2.887,2.999,5c-4.665,0-9.332,0-13.998,0
	c-3.666-4.666-7.332-9.333-10.998-13.999c-1.666-1.333-3.333-2.667-4.999-4c0-0.667,0-1.333,0-2c-1.667-1.333-3.334-2.667-5-4
	c0-0.667,0-1.333,0-2c-1.333-1-2.667-2-4-3c0-0.667,0-1.333,0-2c-2.332-2-4.666-4-6.999-6c0-0.667,0-1.333,0-2
	c-1.332-1-2.666-2-3.999-3c0-0.667,0-1.333,0-2c-0.667-0.333-1.333-0.667-1.999-1c-0.334-1-0.668-2-1-3c-0.334,0-0.667,0-1,0
	C392.776,86.506,392.558,86.212,391.951,83.989z"/>
<path fill-rule="evenodd" clip-rule="evenodd" d="M520.936,85.989c-0.576,2.231-0.832,2.525-2,4c-0.333,0-0.667,0-1,0
	c0,0.667,0,1.333,0,2c-0.667,0.333-1.333,0.667-2,1c0,0.333,0,0.667,0,1c-0.666,0.333-1.333,0.667-2,1c0,0.667,0,1.333,0,2
	c-1.861,2.586-3.787,1.668-4.999,5.999c-0.667,0-1.333,0-2,0c-0.958,3.605-3.87,5.462-5.999,7.999c-0.333,0-0.667,0-1,0
	c0,0.667,0,1.333,0,2c-0.333,0-0.666,0-1,0c-0.999,1.333-1.999,2.667-2.999,4c-1,0.667-2,1.333-3,2c0,0.667,0,1.333,0,2
	c-1.862,2.583-3.796,1.671-4.999,6c-0.667,0-1.333,0-2,0c0,0.667,0,1.333,0,2c-0.333,0-0.667,0-1,0
	c-2.333,2.667-4.667,5.333-6.999,7.999c-4.333,0-8.666,0-12.999,0c1.26-5.045,6.705-10.644,9.999-13.998c1-0.667,2-1.333,3-2
	c0-0.667,0-1.333,0-2c2.999-2.666,5.999-5.333,8.999-7.999c0-0.667,0-1.333,0-2c1.666-1.333,3.333-2.667,4.999-4
	c0-0.667,0-1.333,0-2c0.333,0,0.667,0,1,0c2.147-2.558,4.991-4.386,5.999-7.999c0.667,0,1.334,0,2,0c0-0.667,0-1.333,0-2
	c0.333,0,0.667,0,1,0c2-2.333,4-4.667,5.999-7C512.269,85.989,516.603,85.989,520.936,85.989z"/>
<path fill-rule="evenodd" clip-rule="evenodd" d="M462.941,228.971c-3.665,0-7.332,0-10.998,0c-0.332-0.632-2-2-2-2
	c0-4.331,0-8.666,0-12.997c0.334,0,0.667,0,1,0c-0.333-1.334-0.666-2.667-1-4c0.334,0,0.667,0,1,0c-0.333-1-0.666-2-1-3
	c0,0,1.284-0.146,1-2c-0.213-1.397-1.229,0.396-1-1c0.334,0,0.667,0,1,0c-0.333-0.999-0.666-1.999-1-2.999c0.334,0,0.667,0,1,0
	c0-1.667,0-3.333,0-5c-0.278-1.386-1.187,0.402-1-0.999c0.334,0,0.667,0,1,0c0.597-4.918,0.038-16.944,0-24.997
	c2.873-1.079,7.689-1.044,11.998-1c2.416,6.527,1.053,18.691,1,26.996c-0.332,0-0.666,0-1,0c-1.667,2.965,1.303,7.035,1,8.999
	c-0.332,0-0.666,0-1,0C462.941,212.973,462.941,220.973,462.941,228.971z"/>
<path fill-rule="evenodd" clip-rule="evenodd" d="M232.971,179.978c-0.329,5.562-1.197,3.694-3,6.999c0,0.666,0,1.333,0,2
	c-0.333,0-0.667,0-1,0c0,0.666,0,1.332,0,2c-0.333,0-0.667,0-1,0c0,0.666,0,1.332,0,1.999c-1.333,1-2.667,2-4,2.999
	c0,0.667,0,1.334,0,2c-1,0.667-2,1.333-3,2c0,0.666,0,1.333,0,2c-2,1.666-4,3.333-5.999,4.999c-0.333,0.667-0.667,1.334-1,2
	c-0.667,0-1.333,0-2,0c-0.333,0.667-0.667,1.333-1,2c-0.667,0-1.333,0-2,0c-1,1.333-2,2.666-3,3.999c-2,0.667-4,1.334-5.999,2
	c-5.398,3.297-11.776,7.631-19.998,7.999c0-4.665,0-9.332,0-13.998c1.255-0.5,2.453-0.375,4-1c0-0.333,0-0.667,0-1c1,0,2,0,3,0
	c0-0.333,0-0.666,0-1c1.333-0.333,2.667-0.666,4-1c0-0.333,0-0.666,0-1c0.667,0,1.333,0,2,0c0-0.333,0-0.666,0-1c1,0,2,0,3,0
	c0.333-0.666,0.667-1.333,1-1.999c1-0.334,2-0.667,3-1c0-0.334,0-0.667,0-1c1,0,2,0,3,0c1.333-1.667,2.667-3.333,4-5
	c3.666-3.332,7.333-6.666,10.999-9.998c0-1,0-2,0-2.999c1-0.667,2-1.334,3-2c0-0.334,0-0.667,0-1
	C224.972,179.978,228.972,179.978,232.971,179.978z"/>
<path fill-rule="evenodd" clip-rule="evenodd" d="M297.963,180.978c-1.333,3.665-2.667,7.333-4,10.998c-0.333,0-0.667,0-1,0
	c0,0.666,0,1.333,0,2c-0.333,0-0.667,0-1,0c0,0.999,0,1.999,0,2.999c-0.333,0-0.667,0-1,0c0,0.667,0,1.333,0,2c-0.333,0-0.667,0-1,0
	c0,1,0,2,0,3c-0.667,0.333-1.333,0.666-2,1c0,1.333,0,2.666,0,3.999c-0.667,0.334-1.333,0.667-2,1c-0.333,2.333-0.667,4.667-1,6.999
	c7.227-0.103,15.643,0.229,18.998,1c3.818,0.877,7.62-1.032,8.999,0c1.683,1.818,1.098,7.56,1,10.998c-15.663,0-31.331,0-46.994,0
	c0.333-1.999,0.667-3.999,1-5.998c0.333,0,0.667,0,1,0c0.333-1.667,0.667-3.333,1-5c0.333,0,0.667,0,1,0
	c0.333-1.666,0.667-3.333,1-4.999c0.667-0.333,1.333-0.667,2-1c0-1,0-2,0-3c0.333,0,0.667,0,1,0c0-0.666,0-1.333,0-2
	c0.333,0,0.667,0,1,0c0-1,0-2,0-2.999c0.333,0,0.667,0,1,0c0.333-1.333,0.667-2.667,1-4c0.333,0,0.667,0,1,0c0-1,0-2,0-2.999
	c0.667-0.334,1.333-0.667,2-1c0-1,0-2,0-2.999c0.333,0,0.667,0,1,0c0-0.668,0-1.334,0-2c0.333,0,0.667,0,1,0c0-1,0-2,0-3
	c0.333,0,0.667,0,1,0c0.632-1.246,0.952-4.43,2-4.999C289.963,180.978,293.963,180.978,297.963,180.978z"/>
<path fill-rule="evenodd" clip-rule="evenodd" d="M390.951,227.971c-16.996,0-33.998,0-50.994,0c-0.907-4.869-0.292-6.803,0-11.998
	c10.998,0,21.999,0,32.996,0c-0.333-1.999-0.667-3.999-1-5.999c-0.333,0-0.666,0-1,0c-0.332-1.666-0.666-3.333-1-5
	c-0.332,0-0.666,0-0.999,0c0-1,0-2,0-2.999c-0.333,0-0.667,0-1,0c0-0.667,0-1.334,0-2c-0.333,0-0.667,0-1,0c0-1,0-2,0-3
	c-0.333,0-0.667,0-1,0c0-0.666,0-1.333,0-1.999c-0.333,0-0.667,0-0.999,0c-0.334-1.334-0.668-2.667-1-3.999c-0.334,0-0.667,0-1,0
	c-1-3-2-6-3-8.999c0.666,0,1.333,0,2,0c0-0.334,0-0.667,0-1c3.332,0.333,6.666,0.666,9.998,1c0.523,1.052,1.864,1.746,2,1.999
	c0.333,1.666,0.667,3.333,1,5c0.333,0,0.666,0,1,0c0,1,0,2,0,2.999c0.333,0,0.666,0,1,0c0,0.666,0,1.333,0,2
	c0.333,0,0.666,0,0.999,0c0,0.999,0,1.999,0,2.999c0.334,0,0.667,0,1,0c0,0.667,0,1.333,0,2c0.334,0,0.667,0,1,0c0,1,0,2,0,3
	c0.333,0,0.667,0,1,0c0.333,1.333,0.667,2.666,1,3.999c0.333,0,0.667,0,1,0c0,1,0,2,0,3c0.333,0,0.667,0,1,0
	c0.333,1.333,0.667,2.667,1,4c0.333,0,0.667,0,1,0C387.618,217.973,389.285,222.973,390.951,227.971z"/>
<path fill-rule="evenodd" clip-rule="evenodd" d="M121.985,276.965c0-8.331,0-16.665,0-24.996c3.102-1.163,8.433-1.046,12.998-1
	c1.881,2.126,4.438,2.4,6,4.999c4.117,3.93,2.081,13.067,0,17.998c-1,0.333-2,0.666-3,1c0,0.333,0,0.666,0,1c-0.667,0-1.333,0-2,0
	c0,0.333,0,0.666,0,0.999C131.317,276.965,126.65,276.965,121.985,276.965z"/>
<path fill-rule="evenodd" clip-rule="evenodd" d="M199.975,251.969c5.999,0,11.999,0,17.998,0c0,0.666,0,1.333,0,1.999
	c-4.999,0-9.999,0-14.998,0c0,2.999,0,5.999,0,8.999c4.999,0,10,0,14.998,0c0,0.666,0,1.333,0,2c-4.999,0-9.999,0-14.998,0
	c0,3.332,0,6.666,0,9.999c5.332,0,10.666,0,15.998,0c0,0.999,0,2,0,2.999c-6.332,0-12.666,0-18.998,0
	C199.975,269.3,199.975,260.633,199.975,251.969z"/>
<path fill-rule="evenodd" clip-rule="evenodd" d="M294.963,258.967c-6.042-1.661-2.643-4.843-11.998-4.999
	c-1.139,1.139-0.004,0.398-2,1c-0.649,1.719-0.952,3.14-1,5.999c0.937,0.438,2,2,2,2c1.666,0,3.333,0,4.999,0
	c1.177,0.422,8.63,4.252,8.999,4.999c0,2.333,0,4.666,0,7c-0.902,0.521-3,2.999-3,2.999c-3.999,0-8,0-11.999,0
	c-1.666-2.333-3.333-4.666-5-6.999c1,0,2,0,3,0c0,0.666,0,1.333,0,2c0.895,0.518,3,3,3,3c3.333,0,6.666,0,9.999,0
	c0.333-1,0.667-2,1-3c0.333,0,0.667,0,1,0c0-1.333,0-2.667,0-4c-2.361-0.526-2.364-0.926-4-2c0-0.333,0-0.666,0-1c-2,0-4,0-6,0
	c-5.208-1.87-6.193-3.716-5.999-10.998c0.934-0.553,1.69-1.815,2-1.999c0.667,0,1.333,0,2,0c0-0.334,0-0.667,0-1
	C288.652,249.563,294.018,255.093,294.963,258.967z"/>
<path fill-rule="evenodd" clip-rule="evenodd" d="M434.945,255.968c0.464,2.391,1.159,3.145,2,4.999c-0.667,0-1.333,0-2,0
	c-2.568-4.652-6.469-5.194-13.998-4.999c-2.069,4.391-3.025,4.787-2.999,11.998c-0.417,0.579-1.634,0.146-1,2c0.333,0,0.666,0,1,0
	c1.499,6.95,6.159,7.348,14.997,6.999c1.14-1.138,0.004-0.398,2-0.999c0-2.334,0-4.667,0-7c-2.666,0-5.332,0-7.998,0c0-1,0-2,0-3
	c3.665,0,7.332,0,10.998,0c0,3.333,0,6.667,0,10c-1.432,0.78-4.012,2.77-5,3.999c-3.998,0-7.999,0-11.998,0
	c-1.521-2.295-2.977-1.656-3.999-3c0-0.666,0-1.333,0-1.999c-0.667-0.334-1.334-0.667-2-1c0-4.666,0-9.333,0-13.999
	c1.937-1.603,2.681-3.643,4.999-4.999c1.891-1.998,0.514-0.027,3-1c0-0.333,0-0.666,0-0.999
	C427.796,251.413,431.913,255.132,434.945,255.968z"/>
<path fill-rule="evenodd" clip-rule="evenodd" fill="#FFFFFF" d="M124.984,253.968c0,6.665,0,13.332,0,19.998
	c2.231,0.842,5.437,1.029,8.999,1c2.246-2.501,3.835-0.96,4.999-5c2.358-2.484,0.576-9.258,0-11.999c-1.81-1.01-2.968-2.208-4-3.999
	C131.65,253.968,128.317,253.968,124.984,253.968z"/>
<path fill-rule="evenodd" clip-rule="evenodd" d="M353.956,253.968c1,0,2,0,3,0c0.103,4.882,1.063,21.697-1,23.997
	c-1.14,1.139-0.004,0.398-2,1C353.956,270.633,353.956,262.299,353.956,253.968z"/>
<path fill-rule="evenodd" clip-rule="evenodd" d="M494.938,254.968c1,0,2,0,2.999,0c0.673,1.293,1.557,1.344,2,2
	c0,0.667,0,1.333,0,1.999c1,0.667,2,1.334,3,2c0,0.667,0,1.333,0,2c1,0.666,2,1.333,2.999,2c2.156,3.041,2.753,6.076,5.999,7.999
	c0-5.999,0-12,0-17.998c1,0,2,0,3,0c0,8.331,0,16.665,0,24.997c-1.333,0-2.666,0-4,0c0-0.666,0-1.333,0-2
	c-2.491-1.633-2.295-3.555-3.999-5.999c-0.999-0.667-1.999-1.334-2.999-2c-1.667-2.999-3.333-6-5-8.999c-0.333,0-0.666,0-1,0
	c0,5.999,0,11.999,0,17.998c-0.333,0-0.666,0-0.999,0c-1.14,1.139-0.005,0.398-2,1C494.938,271.633,494.938,263.299,494.938,254.968
	z"/>
</svg>
